<svg width="106" height="83" viewBox="0 0 106 83" fill="none" xmlns="http://www.w3.org/2000/svg">
<path fill-rule="evenodd" clip-rule="evenodd" d="M89.1963 45.2565C89.2185 44.7354 89.2298 44.2115 89.2298 43.685C89.2298 23.6829 73.0149 7.46802 53.0128 7.46802C33.0108 7.46802 16.7959 23.6829 16.7959 43.685C16.7959 44.2115 16.8071 44.7354 16.8294 45.2565H9.82394C9.8053 44.735 9.7959 44.2111 9.7959 43.685C9.7959 19.8169 29.1448 0.468018 53.0128 0.468018C76.8809 0.468018 96.2298 19.8169 96.2298 43.685C96.2298 44.2111 96.2204 44.735 96.2017 45.2565H89.1963Z" fill="#1F57F7"/>
<path d="M24.0319 58.4296C24.0319 68.1334 24.0319 76.4759 24.0319 80.1462C24.0319 81.2508 23.1333 82.1499 22.0326 82.058C9.87267 81.0428 0.320312 70.8517 0.320312 58.4296C0.320312 46.0074 9.87267 35.8163 22.0326 34.8011C23.1333 34.7092 24.0319 35.6084 24.0319 36.7129C24.0319 40.3833 24.0319 48.7257 24.0319 58.4296Z" fill="#1F57F7"/>
<rect x="26.6665" y="34.718" width="7.02564" height="47.4231" rx="3.51282" fill="#1F57F7"/>
<path d="M82.0844 58.4296C82.0844 48.7257 82.0844 40.3833 82.0844 36.7129C82.0844 35.6084 82.9829 34.7092 84.0837 34.8011C96.2435 35.8163 105.796 46.0074 105.796 58.4296C105.796 70.8517 96.2435 81.0428 84.0837 82.058C82.9829 82.1499 82.0844 81.2508 82.0844 80.1462C82.0844 76.4759 82.0844 68.1335 82.0844 58.4296Z" fill="#1F57F7"/>
<rect x="79.3589" y="82.1411" width="7.02564" height="47.4231" rx="3.51282" transform="rotate(-180 79.3589 82.1411)" fill="#1F57F7"/>
</svg>
